# xmcd
#
# Track frame offsets:
#	150
#	13129
#	31059
#	59726
#	82707
#	95992
#	124318
#	142983
#	159161
#	181849
#	197764
#
# Disc length: 2760 seconds
# Revision: 0
# Processed by: cddbd v1.5.2PL0 Copyright (c) Steve Scherf et al.
# Submitted via: dBpowerAMP V12.0
#
DISCID=8c0ac60b
DTITLE=Dave Hole - Goin' Back Down
DYEAR=2018
DGENRE=Blues Rock
TTITLE0=Stompin' Ground
TTITLE1=Too Little, Too Late 
TTITLE2=These Blues Are Here To Stay
TTITLE3=Measure Of A Man
TTITLE4=Bobby's Rock
TTITLE5=Used To Be
TTITLE6=Shake Your Money Maker
TTITLE7=Arrows In The Dark
TTITLE8=Back Door Man
TTITLE9=Tears For No Reason
TTITLE10=Goin' Back Down
EXTD=
EXTT0=
EXTT1=
EXTT2=
EXTT3=
EXTT4=
EXTT5=
EXTT6=
EXTT7=
EXTT8=
EXTT9=
EXTT10=
PLAYORDER=
